<svg width="30" height="30" viewBox="0 0 30 30" fill="none" xmlns="http://www.w3.org/2000/svg">
<path d="M27.5 0H2.5C1.83696 0 1.20107 0.252856 0.732233 0.702942C0.263392 1.15303 0 1.76348 0 2.39999V10.8C0 18.7079 3.9875 23.5004 7.33281 26.1284C10.9359 28.9574 14.5203 29.9189 14.6766 29.9579C14.8914 30.014 15.118 30.014 15.3328 29.9579C15.4891 29.9189 19.0688 28.9574 22.6766 26.1284C26.0125 23.5004 30 18.7079 30 10.8V2.39999C30 1.76348 29.7366 1.15303 29.2678 0.702942C28.7989 0.252856 28.163 0 27.5 0ZM27.5 2.39999V10.8C27.5 11.2065 27.4875 11.6055 27.4641 12H16.25V2.39999H27.5ZM2.5 2.39999H13.75V12H2.53594C2.5125 11.6055 2.5 11.2065 2.5 10.8V2.39999ZM2.82188 14.4H13.75V27.0824C12.0113 26.3647 10.3848 25.4187 8.91719 24.2714C5.6125 21.6764 3.57344 18.3659 2.825 14.4H2.82188ZM21.1562 24.2129C19.6689 25.3845 18.0173 26.3495 16.25 27.0794V14.4H27.1734C26.4313 18.3359 24.4172 21.6269 21.1562 24.2129Z" fill="white" fill-opacity="0.9"/>
</svg>
