<svg width="28" height="30" viewBox="0 0 28 30" fill="none" xmlns="http://www.w3.org/2000/svg">
<path d="M18.2732 22.5672C18.1036 22.822 17.8398 22.9991 17.5398 23.0594C17.2398 23.1197 16.9281 23.0584 16.6732 22.889C15.7355 22.2657 15.004 21.9281 13.8499 21.9281C12.6957 21.9281 11.9643 22.2657 11.0265 22.889C10.7717 23.0521 10.4629 23.1087 10.1668 23.0464C9.87063 22.9842 9.61078 22.8081 9.44319 22.5562C9.27559 22.3042 9.21365 21.9965 9.27072 21.6993C9.32778 21.4022 9.49928 21.1393 9.74828 20.9673C10.9645 20.1579 12.1273 19.6198 13.8499 19.6198C15.5724 19.6198 16.7352 20.1579 17.9514 20.9673C18.2062 21.1368 18.3833 21.4006 18.4436 21.7007C18.5039 22.0007 18.4426 22.3124 18.2732 22.5672ZM27.6997 2.3075V10.3534C27.6997 15.524 26.3075 20.4018 23.7785 24.085C21.1585 27.9023 17.6326 30 13.8499 30C10.0671 30 6.54117 27.898 3.92124 24.085C1.3922 20.4046 0 15.5269 0 10.3563V2.3075C0.000131907 1.93234 0.091701 1.56287 0.266779 1.23107C0.441857 0.899271 0.695168 0.615144 1.00478 0.403288C1.31439 0.191433 1.67098 0.0582332 2.04366 0.0152215C2.41635 -0.0277901 2.7939 0.0206824 3.14363 0.156443C5.17061 0.944153 9.25921 2.26566 13.8499 2.26566C18.4405 2.26566 22.5277 0.944153 24.5561 0.156443C24.9058 0.0206824 25.2834 -0.0277901 25.6561 0.0152215C26.0287 0.0582332 26.3853 0.191433 26.6949 0.403288C27.0045 0.615144 27.2579 0.899271 27.4329 1.23107C27.608 1.56287 27.6996 1.93234 27.6997 2.3075ZM25.3914 2.3075C23.2129 3.15724 18.8171 4.57686 13.8499 4.57686C8.88266 4.57686 4.48678 3.15436 2.30831 2.3075V10.3563C2.30831 15.0652 3.55768 19.4784 5.82415 22.7822C8.00118 25.9532 10.8505 27.6989 13.8499 27.6989C16.8492 27.6989 19.6985 25.9532 21.8756 22.7822C24.142 19.4756 25.3914 15.0652 25.3914 10.3563V2.3075ZM22.6993 11.8293C22.5864 11.7281 22.4547 11.6501 22.3117 11.5998C22.1686 11.5495 22.0171 11.5279 21.8657 11.5362C21.7143 11.5445 21.566 11.5826 21.4293 11.6482C21.2927 11.7138 21.1702 11.8058 21.0691 11.9187C20.6825 12.3515 19.7923 12.6891 19.0493 12.6891C18.3063 12.6891 17.4104 12.3501 17.0296 11.9187C16.9281 11.8047 16.8052 11.7117 16.6678 11.6452C16.5304 11.5786 16.3813 11.5398 16.2289 11.5309C16.0765 11.522 15.9239 11.5432 15.7797 11.5932C15.6355 11.6433 15.5025 11.7213 15.3885 11.8228C15.2744 11.9242 15.1815 12.0472 15.1149 12.1845C15.0484 12.3219 15.0096 12.4711 15.0006 12.6234C14.9917 12.7758 15.0129 12.9285 15.063 13.0727C15.1131 13.2169 15.1911 13.3498 15.2926 13.4638C16.1163 14.3843 17.6211 15.0032 19.0436 15.0032C20.466 15.0032 21.965 14.3843 22.7946 13.4638C22.8961 13.3505 22.9742 13.2182 23.0244 13.0745C23.0746 12.9308 23.0958 12.7787 23.087 12.6268C23.0781 12.4748 23.0393 12.3262 22.9728 12.1893C22.9063 12.0524 22.8133 11.9301 22.6993 11.8293ZM12.4072 13.4638C12.5082 13.3502 12.5859 13.2177 12.6358 13.074C12.6857 12.9303 12.7068 12.7782 12.6979 12.6263C12.689 12.4745 12.6502 12.3259 12.5839 12.189C12.5176 12.0521 12.4249 11.9296 12.3112 11.8286C12.1975 11.7275 12.0651 11.6498 11.9214 11.5999C11.7777 11.55 11.6256 11.5289 11.4737 11.5378C11.3219 11.5468 11.1732 11.5855 11.0364 11.6518C10.8995 11.7182 10.777 11.8108 10.6759 11.9245C10.2893 12.3573 9.39915 12.6949 8.65616 12.6949C7.91317 12.6949 7.01726 12.3559 6.63639 11.9245C6.53531 11.8108 6.41284 11.7182 6.27596 11.6518C6.13907 11.5855 5.99046 11.5468 5.83861 11.5378C5.68676 11.5289 5.53464 11.55 5.39094 11.5999C5.24724 11.6498 5.11477 11.7275 5.0011 11.8286C4.88742 11.9296 4.79477 12.0521 4.72843 12.189C4.66209 12.3259 4.62336 12.4745 4.61445 12.6263C4.60554 12.7782 4.62663 12.9303 4.67651 13.074C4.72639 13.2177 4.80408 13.3502 4.90516 13.4638C5.73471 14.3843 7.23944 15.0032 8.65616 15.0032C10.0729 15.0032 11.5776 14.3843 12.4072 13.4638Z" fill="white" fill-opacity="0.9"/>
</svg>
