<svg width="30" height="30" viewBox="0 0 30 30" fill="none" xmlns="http://www.w3.org/2000/svg">
<path d="M29.3688 14.6061L27.2188 12.4562C26.8541 12.0919 26.3708 11.8708 25.8568 11.8331C25.3428 11.7953 24.8323 11.9435 24.4184 12.2506L17.7481 5.58023C18.0553 5.16646 18.2037 4.6561 18.1662 4.14211C18.1287 3.62811 17.9079 3.14468 17.5439 2.77987L15.3939 0.62989C15.1942 0.430193 14.9572 0.271782 14.6963 0.163705C14.4354 0.0556273 14.1558 0 13.8734 0C13.591 0 13.3114 0.0556273 13.0505 0.163705C12.7897 0.271782 12.5526 0.430193 12.353 0.62989L3.75304 9.22983C3.55335 9.42948 3.39494 9.66651 3.28686 9.92739C3.17878 10.1883 3.12315 10.4679 3.12315 10.7503C3.12315 11.0327 3.17878 11.3123 3.28686 11.5731C3.39494 11.834 3.55335 12.0711 3.75304 12.2707L5.90303 14.4207C6.26776 14.7844 6.75092 15.005 7.26461 15.0425C7.7783 15.08 8.28838 14.9318 8.70204 14.6249L9.6655 15.5884L0.880125 24.3738C0.296458 25.0121 -0.0184961 25.851 0.000840467 26.7157C0.0201771 27.5805 0.372314 28.4045 0.983932 29.0161C1.59555 29.6277 2.41951 29.9798 3.28425 29.9992C4.14899 30.0185 4.98787 29.7035 5.62622 29.1199L14.4102 20.3345L15.3737 21.2966C15.0665 21.7104 14.9181 22.2207 14.9556 22.7347C14.9931 23.2487 15.2139 23.7322 15.578 24.097L17.7279 26.247C17.9276 26.4467 18.1646 26.6051 18.4255 26.7131C18.6864 26.8212 18.966 26.8768 19.2484 26.8768C19.5308 26.8768 19.8104 26.8212 20.0713 26.7131C20.3321 26.6051 20.5692 26.4467 20.7688 26.247L29.3688 17.647C29.5685 17.4474 29.7269 17.2103 29.835 16.9495C29.943 16.6886 29.9987 16.409 29.9987 16.1266C29.9987 15.8442 29.943 15.5646 29.835 15.3037C29.7269 15.0428 29.5685 14.8058 29.3688 14.6061ZM7.4228 12.9009L5.27281 10.7509L13.8728 2.151L16.0227 4.30099L7.4228 12.9009ZM4.10645 27.5988C3.87986 27.824 3.57334 27.9504 3.25384 27.9504C2.93435 27.9504 2.62783 27.824 2.40124 27.5988C2.1764 27.3722 2.05023 27.066 2.05023 26.7468C2.05023 26.4277 2.1764 26.1214 2.40124 25.8949L11.1853 17.1095L12.8905 18.8134L4.10645 27.5988ZM10.2447 13.124L16.2458 7.12284L22.8758 13.7529L16.876 19.754L10.2447 13.124ZM19.2477 24.7258L17.0977 22.5759L17.6352 22.0384L25.1602 14.5134L25.6977 13.9759L27.8477 16.1259L19.2477 24.7258Z" fill="white" fill-opacity="0.9"/>
</svg>
